<?xml version="1.0" encoding="UTF-8"?>
<svg id="Layer_1" data-name="Layer 1" xmlns="http://www.w3.org/2000/svg" width="795.6" height="817.84" xmlns:xlink="http://www.w3.org/1999/xlink" viewBox="0 0 795.6 817.84">
  <defs>
    <linearGradient id="linear-gradient" x1="418.94" y1="622.2" x2="679.59" y2="622.2" gradientUnits="userSpaceOnUse">
      <stop offset="0" stop-color="#f15a24"/>
      <stop offset="0" stop-color="#f15b23"/>
      <stop offset="0" stop-color="#fdba08"/>
      <stop offset=".52" stop-color="#fdf308"/>
      <stop offset="1" stop-color="#fefc06"/>
    </linearGradient>
    <linearGradient id="linear-gradient-2" x1="4.22" y1="152.06" x2="287.42" y2="152.06" xlink:href="#linear-gradient"/>
  </defs>
  <g id="Fish3">
    <path d="M418.95,608.56s-.37,132.26,3.3,136.66c3.66,4.4,35.9-71.81,36.64-87.2,0,0,29.31,57.89,38.1,59.35,8.79,1.47,15.39-74.74,12.46-84.27s82.8,60.82,82.8,60.82c0,0-11.72-93.79-16.12-100.39,0,0,76.94,19.05,100.39,13.19,23.45-5.86-94.52-107.71-94.52-107.71,0,0-107.71,101.12-163.03,109.54Z" fill="url(#linear-gradient)" stroke="#000" stroke-miterlimit="10" stroke-width="4"/>
    <path d="M657.09,250.25s228.98,108.81,94.89,417.3c0,0-38.1,63.02-84.27,68.88,0,0-25.65-4.4,18.32-37.37,43.96-32.97,95.99-150.94,82.8-206.63-13.19-55.69-27.84-153.14-95.26-202.24" fill="#fff" stroke="#000" stroke-miterlimit="10" stroke-width="3"/>
    <path d="M637.67,310.81s63.02-12.86,47.63-27.98c-15.39-15.13-62.37-78.76-16.85-222.61l1.47-10.26s-82.07,87.93-78.4,152.7c3.61,63.77,46.16,108.16,46.16,108.16Z" fill="#fff" stroke="#000" stroke-miterlimit="10" stroke-width="3"/>
    <path d="M111.79,756.57c-3.01-13.98-6.37-24.91-8.67-31.79-11.43-34.25-23.25-48.71-23.69-76.24-.08-4.79.27-4.71.29-13.97.03-18.6-1.37-33.72-2.6-43.79,0,0-47-41.26-47-78.02,0,0,9.25-96.02-2.31-111.02-11.56-15,94,30.01,166.43,168.79,0,0,47.77,111.77-82.44,186.04Z" fill="#fff" stroke="#000" stroke-miterlimit="10" stroke-width="3"/>
    <path d="M163.59,474.83S91.78,38.85,498.45,118.72c0,0-32.24,20.52-33.71,37.37s-2.2,82.8,48.36,124.57c0,0,30.04,32.24,58.62,32.97,28.58.73,59.35-20.52,61.55-35.9,2.2-15.39,19.78,164.13-47.63,222.02-67.41,57.89-148.01,120.17-222.75,121.63-74.74,1.47-104.05-9.53-113.57-28.58-9.53-19.05-16.49-1.83-16.49-1.83l-69.24-116.14Z" fill="#ea8206" stroke="#000" stroke-miterlimit="10" stroke-width="3"/>
    <path d="M163.59,476.19S91.78,40.21,498.45,120.07c0,0-32.24,20.52-33.71,37.37s-2.2,82.8,48.36,124.57c0,0,30.04,32.24,58.62,32.97,28.58.73,59.35-20.52,61.55-35.9s19.78,164.13-47.63,222.02c-67.41,57.89-148.01,120.17-222.75,121.63-74.74,1.47-104.05-9.53-113.57-28.58-9.53-19.05-16.49-1.83-16.49-1.83l-69.24-116.14Z" fill="#fff800" stroke="#000" stroke-miterlimit="10" stroke-width="4"/>
    <path d="M401.53,361.19s-151.71-53.42-317.37,16.92c0,0,88.62-8.43,140.7,127.86,0,0,13.02,26.38,101.28-71.81,0,0,22.06-22.35,45.94-35.54,23.87-13.19,29.26-22.85,29.46-37.44Z" fill="#fff" stroke="#000" stroke-miterlimit="10" stroke-width="3"/>
    <path d="M593.34,204.08s28.58-117.24,81.33-156.07c0,0,12.09-13.56-7.69-2.56-19.78,10.99-87.2,110.64-87.2,110.64,0,0,8.79,50.56,13.56,47.99Z" fill="#fff800" stroke="#000" stroke-miterlimit="10" stroke-width="4"/>
    <path d="M14.48,376.28s123.1,46.16,148.75,93.79c25.65,47.63,69.61,120.9,69.61,120.9,0,0-5.86,145.82-130.43,190.51,0,0-28.94-2.56,5.5-26.01,0,0,76.2-13.19,84.27-189.05,0,0-80.6-134.82-165.6-167.8,0,0-25.65-9.53-12.09-22.35Z" fill="#e2d713" stroke="#000" stroke-miterlimit="10" stroke-width="4"/>
    <path d="M458.89,163.42s-1.47-48.36,83.53-54.22c0,0,37.37.73,43.96,72.54,0,0-1.47,19.78,12.46,32.24s45.43,11.72,34.44,60.82c-10.99,49.09-142.15,85-174.39-111.38Z" fill="#ffbbb6"/>
    <path d="M509.08,245.12s35.9-35.9,76.2-34.44c0,0,25.28,25.28,27.48,31.87s-1.47,31.51-40.3,45.43c-38.84,13.92-54.96-29.31-63.38-42.87Z" fill="#f9f164"/>
    <path d="M496.62,225.33c-4.82-9.63-6.91-18.28-7.88-24.73-1.36-9.09-5.18-34.73,10.81-50.01,5.85-5.59,12.19-7.72,16.21-9.07,14.55-4.88,29.03-2.37,37.64,1.37,20.91,9.08,34.28,37.09,29.31,68.14l-72.54,34.44s-15.39-17.59-13.56-20.15Z"/>
    <path d="M496.99,225.95s34.5-29.07,87.1-29.14l-1.35,14.9s-18.97,8.13-72.26,33.87c0,0-15.07-17.58-13.49-19.64Z" fill="#d1c3c3" opacity=".29"/>
    <path d="M399.17,362.36s-192.71-50.56-326.8,17.59c0,0-34.44-8.79,0-24.91,34.44-16.12,202.97-75.47,328.27-12.46,0,0,10.99,6.59-1.47,19.78Z" fill="#fff800" stroke="#000" stroke-miterlimit="10" stroke-width="4"/>
    <path d="M468.05,267.1s13.19-16.12,19.78,8.06c6.59,24.18-35.9,85.73-4.4,133.36,31.51,47.63,112.48,174.76,97.82,248.03-14.65,73.27-27.11,139.22-137.02,159.74,0,0-22.71-8.79,15.39-24.91,38.1-16.12,90.86-54.22,99.65-126.03,8.79-71.81-113.57-252.8-109.18-282.1,0,0-8.06-86.46,18.32-117.24" fill="#fff" stroke="#000" stroke-miterlimit="10" stroke-width="3"/>
    <ellipse cx="369.36" cy="227.6" rx="47.53" ry="75.04" transform="translate(-62.74 188.62) rotate(-26.49)" fill="#fff" stroke="#000" stroke-miterlimit="10" stroke-width="3"/>
    <ellipse cx="369.43" cy="229.76" rx="11.21" ry="17.7" transform="translate(-63.7 188.88) rotate(-26.49)"/>
    <path d="M169.79,298.08c-70.98,10.48-138.83-1.3-130.77-13.76,9.01-13.92,34.76-44.78,86.83-69.98L4.22,76.59s113.57-6.59,202.97,54.22c0,0-16.49-113.94-2.56-127.86,13.92-13.92,82.8,130.43,82.8,130.43,0,0-79.92,53.9-117.63,164.71Z" fill="url(#linear-gradient-2)" stroke="#000" stroke-miterlimit="10" stroke-width="4"/>
    <path d="M606.53,267.1c-7.66,9.55-28.63,23.32-42.5,24.91-11.45,1.31-26.22-1.48-31.51-11.72l27.11,3.66s55.69-5.86,44.7-51.29c0,0,1.45.72,1.47.73,12.46,8.06,8.83,23.61.73,33.71Z" fill="#fff7bb"/>
    <path d="M476.11,130.81c9.53-8.79,45.43-24.18,67.41-21.25,18.29,2.44,33.01,25.48,35.9,36.64l-34.44-32.97s-83.46,20.68-82.8,67.41c0,0-2.19-13.17-2.2-13.19-2.2-10.99,6.61-27.86,16.12-36.64Z" fill="#ffdfde"/>
  </g>
</svg>