<svg xmlns="http://www.w3.org/2000/svg" xmlns:xlink="http://www.w3.org/1999/xlink" version="1.1" x="0px" y="0px" viewBox="0 0 504 565.47" style="enable-background:new 0 0 504 452.376;" xml:space="preserve"><g><path d="M309.161,198.718c12.719,0,23.065-10.347,23.065-23.065s-10.347-23.065-23.065-23.065s-23.065,10.347-23.065,23.065   S296.442,198.718,309.161,198.718z M309.161,160.587c8.307,0,15.065,6.758,15.065,15.065s-6.759,15.065-15.065,15.065   s-15.065-6.758-15.065-15.065S300.854,160.587,309.161,160.587z"/><path d="M500,257.295h-35.292c3.376-6.427,6.355-13.047,8.899-19.827c17.746-3.7,30.393-17.017,30.393-32.399   c0-11.73-7.289-22.448-19.201-28.498c-0.658-25.498-5.745-50.337-16.112-74.392c9.378-6.302,14.887-15.568,14.887-25.382   c0-18.426-19.134-33.416-42.653-33.416c-4.883,0-9.646,0.635-14.189,1.885C395.577,17.146,354.335,0,309.161,0   c-36.285,0-71.113,10.971-100.719,31.726c-5.958,4.177-11.601,8.703-16.945,13.516c-4.517-1.234-9.247-1.862-14.096-1.862   c-23.52,0-42.654,14.99-42.654,33.416c0,9.8,5.493,19.055,14.848,25.356c-1.12,2.432-2.177,4.899-3.189,7.39l-29.245-8.855   c-1.213-0.367-2.524-0.139-3.543,0.616c-1.017,0.755-1.616,1.946-1.616,3.212v57.684c-22.311,42.417-59.36,80.294-110.148,112.588   C0.699,275.521,0,276.794,0,278.162v34.301c0,8.549,5.996,15.711,14,17.537v118.376c0,2.209,1.791,4,4,4h196.004   c2.209,0,4-1.791,4-4v-26.597h8.318c1.749,0,3.295-1.136,3.817-2.806l23.926-76.487c3.371,1.112,6.787,2.117,10.216,3.021v13.719   c0,2.209,1.791,4,4,4h4.773v23.658h-15.768c-2.209,0-4,1.791-4,4v57.492c0,2.209,1.791,4,4,4H500c2.209,0,4-1.791,4-4v-57.492   c0-2.209-1.791-4-4-4h-15.768v-23.658h4.773c2.209,0,4-1.791,4-4v-36.439H500c2.209,0,4-1.791,4-4v-57.492   C504,259.086,502.209,257.295,500,257.295z M484.512,185.651c5.913,3.93,9.844,9.404,11.068,15.418h-12.632   C483.692,195.963,484.218,190.82,484.512,185.651z M495.589,209.069c-1.733,8.524-8.904,15.799-18.858,19.261   c1.982-6.319,3.614-12.749,4.872-19.261H495.589z M465.128,94.919c-2.517-4.842-5.247-9.556-8.189-14.123h18.18   C473.934,86.125,470.421,91.098,465.128,94.919z M440.921,51.38c17.253,0,31.596,9.295,34.22,21.416h-23.683   c-5.37-7.408-11.298-14.385-17.732-20.863C436.074,51.567,438.478,51.38,440.921,51.38z M309.161,8   c92.444,0,167.653,75.208,167.653,167.653c0,28.634-7.341,56.804-21.212,81.642h-16.305c15.379-24.443,23.491-52.504,23.491-81.642   c0-84.71-68.917-153.626-153.627-153.626c-31.453,0-61.69,9.439-87.443,27.297c-24.142,16.741-42.781,39.731-54.127,66.633   l-13.515-4.092C179.747,49.565,241.52,8,309.161,8z M309.161,209.813c-18.837,0-34.161-15.324-34.161-34.161   s15.324-34.161,34.161-34.161c18.836,0,34.16,15.324,34.16,34.161S327.997,209.813,309.161,209.813z M314.927,217.409v39.886   h-11.531v-39.886H314.927z M295.396,215.494v41.801H279.35l13.074-42.955C293.396,214.762,294.388,215.145,295.396,215.494z    M161.966,219.767c-6.847-7.163-13.183-14.507-19.001-22.024c-0.957-7.283-1.458-14.705-1.458-22.09   c0-11.645,1.214-23.253,3.58-34.551l15.531-4.704c-3.363,12.758-5.085,25.926-5.085,39.255   C155.534,190.768,157.7,205.539,161.966,219.767z M214.637,274.162h-41.02c-26.335-25.271-43.281-55.717-50.534-90.748   C144.457,216.918,175.145,247.342,214.637,274.162z M165.741,201.069c-0.677-3.851-1.194-7.736-1.559-11.65h15.806   c3.393,3.407,5.609,7.419,6.471,11.65H165.741z M186.443,209.069c-1.432,6.909-6.497,13.157-13.905,17.098   c-2.076-5.604-3.803-11.307-5.164-17.098H186.443z M213.216,263.444L246.46,230.2l-20.108,42.137   C221.861,269.417,217.484,266.452,213.216,263.444z M206.634,258.712c-11.047-8.124-21.3-16.556-30.753-25.281   c11.659-6.041,18.99-16.783,18.99-28.362c0-5.522-1.631-10.875-4.677-15.65h75.727l-9.135,19.141L206.634,258.712z    M163.657,181.418l-0.008-11.531h103.755v11.531H163.657z M164.203,161.887c0.9-9.594,2.74-19.043,5.507-28.242l15.504-4.695   c1.688-0.511,2.841-2.065,2.841-3.828s-1.153-3.317-2.841-3.828l-9.928-3.006c1.18-2.759,2.442-5.463,3.772-8.118   c12.681-0.389,24.506-5.201,32.17-12.982l60.027,60.027c-0.737,1.509-1.379,3.071-1.935,4.673H164.203z M183.584,101.788   c3.938-6.734,8.381-13.071,13.252-18.994l8.735,8.735C200.294,96.94,192.396,100.606,183.584,101.788z M202.093,76.739   c2.609-2.836,5.316-5.569,8.131-8.177l73.497,73.498c-3.075,2.334-5.82,5.079-8.154,8.154L202.093,76.739z M295.396,76.822v58.99   c-1.603,0.555-3.165,1.198-4.674,1.935l-74.451-74.452c15.851-13.125,34.408-22.803,54.578-28.231   c-1.291,3.309-1.962,6.788-1.962,10.34C268.887,59.528,279.636,72.081,295.396,76.822z M295.396,49.404v18.981   c-9.587-3.583-16.404-10.734-18.094-18.981H295.396z M277.302,41.404c0.623-3.074,1.966-6.028,3.969-8.734   c4.64-0.89,9.356-1.54,14.125-1.982v10.716H277.302z M303.396,133.896V30.14l11.531,0.011v103.746H303.396z M341.021,49.404   c-1.69,8.246-8.507,15.397-18.094,18.98v-18.98H341.021z M322.927,41.404V30.681c4.794,0.452,9.52,1.137,14.169,2.044   c1.981,2.692,3.307,5.626,3.926,8.678H322.927z M349.436,45.404c0-3.518-0.656-6.963-1.922-10.242   c20.206,5.522,38.677,15.289,54.381,28.291L327.6,137.747c-1.509-0.737-3.07-1.379-4.673-1.935v-58.99   C338.687,72.08,349.436,59.528,349.436,45.404z M431.864,201.069c0.862-4.232,3.078-8.244,6.47-11.65h15.787   c-0.366,3.916-0.888,7.801-1.564,11.65H431.864z M450.939,209.069c-1.361,5.806-3.094,11.509-5.16,17.095   c-7.406-3.94-12.468-10.188-13.9-17.095H450.939z M350.917,181.418v-11.531h103.747l0.01,11.531H350.917z M349.001,161.887   c-0.555-1.603-1.198-3.164-1.935-4.673l60.028-60.027c7.652,7.77,19.454,12.58,32.114,12.981   c7.995,15.813,13.187,33.27,14.925,51.719H349.001z M412.751,91.53l8.61-8.61c4.893,5.909,9.322,12.215,13.246,18.852   C425.849,100.571,418.003,96.914,412.751,91.53z M342.754,150.214c-2.334-3.075-5.079-5.82-8.154-8.154l73.323-73.322   c2.824,2.61,5.544,5.33,8.154,8.154L342.754,150.214z M322.927,215.494c1.008-0.349,1.999-0.731,2.971-1.153l13.074,42.954h-16.045   V215.494z M333.051,210.366c5.594-3.862,10.21-9.037,13.403-15.079l30.492,62.009h-29.612L333.051,210.366z M373.192,231.53   l25.764,25.765h-13.095L373.192,231.53z M362.246,209.27l-9.762-19.852h75.643c-3.046,4.774-4.677,10.128-4.677,15.65   c0,11.694,7.478,22.533,19.339,28.539c-3.578,8.232-7.94,16.155-13.052,23.687H410.27L362.246,209.27z M177.401,51.38   c2.403,0,4.769,0.179,7.08,0.534c-6.468,6.504-12.415,13.474-17.769,20.882H143.18C145.804,60.676,160.149,51.38,177.401,51.38z    M143.202,80.796h18.095c-2.925,4.559-5.665,9.245-8.164,14.077C147.873,91.058,144.383,86.104,143.202,80.796z M120.002,109.906   l50.251,15.216l-50.251,15.218V109.906z M120.002,148.699l16.418-4.972c-1.923,10.484-2.912,21.191-2.912,31.926   c0,3.154,0.11,6.313,0.278,9.469c-5.09-7.483-9.684-15.127-13.784-22.923V148.699z M120.002,203.328   c8.35,26.514,22.492,50.217,42.298,70.834h-42.298V203.328z M108.922,183.413c-7.252,35.031-24.199,65.478-50.535,90.749h-41.02   C56.858,247.342,87.546,216.917,108.922,183.413z M112.002,203.328v70.834H69.703C89.509,253.544,103.652,229.842,112.002,203.328z    M8,312.463v-30.301h20v30.301c0,5.514-4.486,10-10,10S8,317.977,8,312.463z M42.001,444.376H22V330   c4.003-0.913,7.502-3.156,10-6.248c2.498,3.093,5.997,5.335,10.001,6.248V444.376z M36,312.463v-30.301h20.001v30.301   c0,5.514-4.486,10-10,10C40.486,322.463,36,317.977,36,312.463z M70.001,444.376h-20V330c4.003-0.913,7.502-3.156,10-6.248   c2.498,3.092,5.997,5.335,10,6.248V444.376z M64.001,312.463v-30.301h20v30.301c0,5.514-4.486,10-10,10   S64.001,317.977,64.001,312.463z M98.002,444.376H78.001V330c4.003-0.913,7.502-3.156,10-6.248   c2.498,3.093,5.997,5.335,10.001,6.248V444.376z M92.001,312.463v-30.301h20.001v30.301c0,5.514-4.486,10-10,10   C96.487,322.463,92.001,317.977,92.001,312.463z M126.002,444.376h-20V330c4.003-0.913,7.502-3.156,10-6.248   c2.498,3.092,5.997,5.335,10,6.248V444.376z M120.002,312.463v-30.301h20v30.301c0,5.514-4.486,10-10,10   S120.002,317.977,120.002,312.463z M154.003,444.376h-20.001V330c4.003-0.913,7.502-3.156,10-6.248   c2.498,3.093,5.997,5.335,10.001,6.248V444.376z M148.002,312.463v-30.301h20.001v30.301c0,5.514-4.486,10-10,10   C152.488,322.463,148.002,317.977,148.002,312.463z M182.003,444.376h-20V330c4.003-0.913,7.502-3.156,10-6.248   c2.498,3.092,5.997,5.335,10,6.248V444.376z M176.003,312.463v-30.301h20v30.301c0,5.514-4.486,10-10,10   S176.003,317.977,176.003,312.463z M210.004,444.376h-20.001V330c4.003-0.913,7.502-3.156,10-6.248   c2.498,3.093,5.998,5.335,10.001,6.248V444.376z M214.003,322.463c-5.514,0-10-4.486-10-10v-30.301h20.001v30.301   C224.004,317.977,219.518,322.463,214.003,322.463z M253.288,261.295v56.882l-29.905,95.602h-5.379V330   c8.004-1.826,14-8.988,14-17.537v-33.395l39.925-83.662c3.191,5.991,7.785,11.123,13.342,14.959l-14.284,46.929h-13.699   C255.079,257.295,253.288,259.086,253.288,261.295z M264.282,337.223c-2.627-0.728-5.241-1.519-7.827-2.374l3.773-12.062h4.054   V337.223z M496,394.884v49.492H261.288v-49.492H496z M281.056,386.884v-23.658h9.337v23.658H281.056z M298.393,386.884v-23.658   h72.822l7.201,23.658H298.393z M440.67,386.884h-53.892l-7.201-23.658h49.46L440.67,386.884z M437.952,363.226h20.943v23.658h-9.31   L437.952,363.226z M466.896,386.884v-23.658h9.337v23.658H466.896z M485.006,355.226H272.282v-32.439h212.724V355.226z    M496,314.787H261.288v-49.492H496V314.787z"/><circle cx="277.839" cy="279.64" r="6"/><circle cx="277.839" cy="300.441" r="6"/><circle cx="479.449" cy="279.64" r="6"/><circle cx="479.449" cy="300.441" r="6"/></g><text x="0" y="467.376" fill="#000000" font-size="5px" font-weight="bold" font-family="'Helvetica Neue', Helvetica, Arial-Unicode, Arial, Sans-serif">Created by Amethyst Studio</text><text x="0" y="472.376" fill="#000000" font-size="5px" font-weight="bold" font-family="'Helvetica Neue', Helvetica, Arial-Unicode, Arial, Sans-serif">from the Noun Project</text></svg>