<svg xmlns="http://www.w3.org/2000/svg" version="1.1" viewBox="-5.0 -10.0 110.0 135.0">
 <path d="m4.6875 47.238v13.832c0 2.7695 2.25 5.0156 5.0234 5.0156h4.2422c0.75781 5.0938 5.1484 9.0039 10.449 9.0039 5.3008 0 9.6953-3.9102 10.449-9.0039h30.758c0.75781 5.0938 5.1484 9.0039 10.449 9.0039 5.3008 0 9.6953-3.9102 10.449-9.0039h3.9062c2.7031 0 4.8984-2.1914 4.8984-4.8984v-8.2266c0-5.3711-4.1172-9.8438-9.4688-10.293l-12.766-1.0664-10.035-12.371c-2.2148-2.7344-5.5508-4.3203-9.0703-4.3203h-28.652c-3.4141 0-6.6562 1.4922-8.875 4.0898-2.625 3.0664-6.3711 7.4453-8.8359 10.332-1.8828 2.2031-2.9219 5.0039-2.9219 7.9062zm19.715 9.8477c4.1055 0 7.4375 3.3359 7.4375 7.4375 0 4.1094-3.332 7.4414-7.4375 7.4414-4.1055 0-7.4414-3.332-7.4414-7.4414 0-4.1016 3.3359-7.4375 7.4414-7.4375zm51.656 0c4.1055 0 7.4375 3.3359 7.4375 7.4375 0 4.1094-3.332 7.4414-7.4375 7.4414-4.1055 0-7.4375-3.332-7.4375-7.4414 0-4.1016 3.332-7.4375 7.4375-7.4375zm-51.656 2.2578c-2.8594 0-5.1797 2.3203-5.1797 5.1797 0 2.8633 2.3203 5.1875 5.1797 5.1875s5.1836-2.3242 5.1836-5.1875c0-2.8594-2.3242-5.1797-5.1836-5.1797zm51.656 0c-2.8594 0-5.1797 2.3203-5.1797 5.1797 0 2.8633 2.3203 5.1875 5.1797 5.1875s5.1836-2.3242 5.1836-5.1875c0-2.8594-2.3242-5.1797-5.1836-5.1797zm-51.656 3.125c1.1367 0 2.0586 0.92188 2.0586 2.0547 0 1.1406-0.92188 2.0625-2.0586 2.0625-1.1328 0-2.0547-0.92188-2.0547-2.0625 0-1.1328 0.92188-2.0547 2.0547-2.0547zm51.656 0c1.1367 0 2.0586 0.92188 2.0586 2.0547 0 1.1406-0.92188 2.0625-2.0586 2.0625-1.1328 0-2.0547-0.92188-2.0547-2.0625 0-1.1328 0.92188-2.0547 2.0547-2.0547zm11.66-16.176c-0.66406-0.26953-1.3828-0.44922-2.1367-0.51172-6.0938-0.50781-13.426-1.1211-13.426-1.1211-0.42578-0.035156-0.81641-0.24219-1.0859-0.57422 0 0-6.4727-7.9805-10.453-12.887-1.625-2.0039-4.0625-3.1641-6.6445-3.1641h-28.652c-2.5 0-4.875 1.0977-6.5 2.9961-2.625 3.0664-6.3711 7.4453-8.8359 10.332-1.1797 1.375-1.9062 3.0664-2.1133 4.8477h2.7031c1.8242 0 3.3008 1.4727 3.3008 3.2969v2.6367c0 1.8203-1.4766 3.3008-3.3008 3.3008h-2.7617v5.625c0 1.0469 0.85156 1.8906 1.8984 1.8906h4.2422c0.75781-5.0898 5.1484-9 10.449-9 5.3008 0 9.6953 3.9102 10.449 9h30.758c0.75781-5.0898 5.1484-9 10.449-9 5.3008 0 9.6953 3.9102 10.449 9h3.9062c0.98047 0 1.7734-0.79297 1.7734-1.7734v-5.7422h-3.7148c-1.8242 0-3.3008-1.4805-3.3008-3.3008v-2.6367c0-1.5625 1.0859-2.8711 2.5469-3.2148zm-51.891 10.793h28.492c0.86328 0 1.5625-0.69922 1.5625-1.5625 0-0.85938-0.69922-1.5625-1.5625-1.5625h-28.492c-0.86328 0-1.5625 0.70312-1.5625 1.5625 0 0.86328 0.69922 1.5625 1.5625 1.5625zm55.383-7.75h-2.7383c-0.097656 0-0.17578 0.078124-0.17578 0.17187v2.6367c0 0.097657 0.078125 0.17578 0.17578 0.17578h3.6875c-0.097656-1.0781-0.43359-2.0938-0.94922-2.9844zm-83.398 0v2.9844h2.7617c0.097656 0 0.17578-0.078124 0.17578-0.17578v-2.6367c0-0.09375-0.078125-0.17187-0.17578-0.17187zm45.02-18.953h-26.496c-2.2656 0-4.4102 1.0156-5.8516 2.7656-2.7148 3.3008-7.5391 9.168-7.5391 9.168-0.38281 0.46484-0.46094 1.1133-0.20312 1.6602 0.25781 0.54688 0.80859 0.89063 1.4102 0.89063h50.758c0.60156 0 1.1484-0.34375 1.4102-0.89063 0.25781-0.54297 0.18359-1.1875-0.19922-1.6562l-7.4062-9.1328c-1.4375-1.7734-3.5977-2.8047-5.8828-2.8047zm-11.738 3.125h11.738c1.3438 0 2.6133 0.60547 3.457 1.6484l5.3438 6.5859h-20.539zm-3.125 0v8.2344h-20.508s5.4375-6.6094 5.4375-6.6094c0.84375-1.0312 2.1094-1.625 3.4375-1.625z" fill-rule="evenodd"/>
<text x="0.0" y="117.5" font-size="5.0" font-weight="bold" font-family="Arbeit Regular, Helvetica, Arial-Unicode, Arial, Sans-serif" fill="#000000">Created by rendicon</text><text x="0.0" y="122.5" font-size="5.0" font-weight="bold" font-family="Arbeit Regular, Helvetica, Arial-Unicode, Arial, Sans-serif" fill="#000000">from Noun Project</text></svg>