<svg xmlns="http://www.w3.org/2000/svg" viewBox="0 0 64 80" x="0px" y="0px"><title>1</title><path d="M28.67251,25.28665c-4.956.0365-4.23329-.68138-4.27076,4.27085a.99993.99993,0,0,0,.99991.99991h3.27085a1,1,0,0,0,1-1V26.28661A1,1,0,0,0,28.67251,25.28665Zm-.99995,3.27085H26.40162V27.28656h1.27094Z"/><path d="M28.67251,32.65058c-4.95661.03636-4.23313-.68094-4.27076,4.27133a.99993.99993,0,0,0,.99991.99992h3.27085a1,1,0,0,0,1-.99995V33.65054A1,1,0,0,0,28.67251,32.65058Zm-.99995,3.27134H26.40162V34.65049h1.27094Z"/><path d="M28.67251,40.00621c-4.95661.03636-4.23313-.68094-4.27076,4.27133a.99993.99993,0,0,0,.99991.99992h3.27085a1,1,0,0,0,1-.99995V41.00617A1,1,0,0,0,28.67251,40.00621Zm-.99995,3.27134H26.40162V42.00612h1.27094Z"/><path d="M38.486,40.00621c-4.95694.03657-4.23369-.68173-4.27125,4.27133a.99962.99962,0,0,0,.99991.99992H38.486a.99969.99969,0,0,0,1-.99995V41.00617A.99969.99969,0,0,0,38.486,40.00621Zm-1,3.27134H36.21466V42.00612h1.27142Z"/><path d="M38.486,32.65058c-4.95694.03657-4.23369-.68173-4.27125,4.27133a.99962.99962,0,0,0,.99991.99992H38.486a.99969.99969,0,0,0,1-.99995V33.65054A.9997.9997,0,0,0,38.486,32.65058Zm-1,3.27134H36.21466V34.65049h1.27142Z"/><path d="M38.486,25.28665c-4.95632.03671-4.23385-.68218-4.27125,4.27085a.99962.99962,0,0,0,.99991.99991H38.486a.99969.99969,0,0,0,1-1V26.28661A.99969.99969,0,0,0,38.486,25.28665Zm-1,3.27085H36.21466V27.28656h1.27142Z"/><path d="M53.26663,26.92183H44.393V23.01527a.99969.99969,0,0,0-.99995-1c-3.22892.00047-14.56878-.00034-17.99139,0H20.49514a1,1,0,0,0-.99995,1v3.90656H10.73337a1,1,0,0,0-1,1V58.99755a1,1,0,0,0,1,1c2.1214.00775,10.63049-.00559,12.55655,0,6.18339-.00369,13.92607.00266,20.10312,0h9.87359a.99969.99969,0,0,0,1-1V27.92179A.9997.9997,0,0,0,53.26663,26.92183ZM11.73332,28.92174h7.76187V57.9976H11.73332ZM34.20986,57.9976H29.68028V49.75236h4.52958Zm6.88934,0H36.20977V48.7524a.99968.99968,0,0,0-.99995-.99995h-6.5295a1,1,0,0,0-.99995.99995v9.2452c-1.22474-.00356-5.01193.00256-6.18527,0V24.01522c5.02781-.004,15.86964.00288,20.898,0V57.9976Zm11.16748,0H44.393V28.92174h7.87368Z"/><path d="M28.16863,13.55573,26.7517,17.91637a1.00008,1.00008,0,0,0,1.539,1.11812L32,16.33929l3.7098,2.6952a1.00613,1.00613,0,0,0,1.53895-1.11816l-1.41689-4.3606,3.70882-2.6952a1,1,0,0,0-.58786-1.809H34.36806L32.95113,4.69089a1.00014,1.00014,0,0,0-1.90226,0L29.63194,9.05153H25.0467a1,1,0,0,0-.58787,1.809Zm2.18984-2.50429a1,1,0,0,0,.95113-.69088L32,8.23565l.6904,2.12491a.99949.99949,0,0,0,.95113.69088H35.8758l-1.80753,1.31342A1.00022,1.00022,0,0,0,33.705,13.483l.6904,2.1249c-2.75658-1.99928-2.04415-1.98627-4.79031-.00042l.6904-2.12448a1.00022,1.00022,0,0,0-.36327-1.11812l-1.808-1.31342Z"/><text x="0" y="79" fill="#000000" font-size="5px" font-weight="bold" font-family="'Helvetica Neue', Helvetica, Arial-Unicode, Arial, Sans-serif">Created by Metami Septiana</text><text x="0" y="84" fill="#000000" font-size="5px" font-weight="bold" font-family="'Helvetica Neue', Helvetica, Arial-Unicode, Arial, Sans-serif">from the Noun Project</text></svg>