<svg xmlns:dc="http://purl.org/dc/elements/1.1/" xmlns:cc="http://creativecommons.org/ns#" xmlns:rdf="http://www.w3.org/1999/02/22-rdf-syntax-ns#" xmlns:svg="http://www.w3.org/2000/svg" xmlns="http://www.w3.org/2000/svg" xmlns:sodipodi="http://sodipodi.sourceforge.net/DTD/sodipodi-0.dtd" xmlns:inkscape="http://www.inkscape.org/namespaces/inkscape" version="1.1" x="0px" y="0px" viewBox="0 0 100 125"><g transform="translate(0,-952.36218)"><path style="text-indent:0;text-transform:none;direction:ltr;block-progression:tb;baseline-shift:baseline;color:#000000;enable-background:accumulate;" d="m 77.426422,963.6956 c -1.142439,-0.74545 -2.506163,-0.6595 -3.742006,-0.24107 -1.235849,0.41844 -2.476349,1.19141 -3.76259,2.21635 -2.572497,2.04989 -5.344976,5.17395 -7.847695,9.00952 l -5.441926,8.34009 -11.740505,-1.05892 c 0.445317,-1.01619 0.675977,-2.07888 0.633027,-3.10017 -0.05956,-1.41622 -0.671303,-2.83168 -1.937305,-3.65774 -1.266003,-0.82607 -2.835032,-0.83358 -4.155288,-0.3177 -1.320256,0.51588 -2.497625,1.52023 -3.370634,2.85817 l -2.102539,3.22226 -8.051532,-0.73656 a 1.5521276,1.5521276 0 0 0 -0.939655,0.19755 l -7.597034,4.42448 a 1.5521276,1.5521276 0 0 0 0.341993,2.84843 l 30.22655,8.64264 -4.682203,7.17567 c -2.580348,3.9546 -4.219101,7.7568 -5.020998,11.0084 l -15.39803,-0.01 a 1.5521276,1.5521276 0 0 0 -0.876116,0.2775 l -4.426889,3.057 a 1.5521276,1.5521276 0 0 0 0.565756,2.8013 l 20.162436,3.8904 10.913887,16.3485 a 1.5521276,1.5521276 0 0 0 2.78486,-0.4221 l 1.475366,-4.9828 a 1.5521276,1.5521276 0 0 0 -0.09157,-1.1022 l -6.776705,-14.228 c 2.69869,-2.038 5.56731,-5.1005 8.196226,-9.1295 l 4.523159,-6.9319 20.243771,23.9418 a 1.5521276,1.5521276 0 0 0 2.736661,-0.7624 l 1.130896,-7.1767 a 1.5521276,1.5521276 0 0 0 -0.162293,-0.9938 l -4.238309,-7.823 2.526585,-3.8721 c 0.873008,-1.3379 1.318097,-2.8201 1.258535,-4.2363 -0.05956,-1.4163 -0.698371,-2.8494 -1.964383,-3.67542 -1.266003,-0.826 -2.807953,-0.8159 -4.128209,-0.3 -1.145744,0.4478 -2.155784,1.29672 -2.980775,2.37892 l -5.800203,-10.69516 5.671615,-8.6921 c 2.50272,-3.83558 4.245552,-7.6315 5.085721,-10.81173 0.420086,-1.59011 0.627958,-3.03687 0.513207,-4.33658 -0.114756,-1.2997 -0.612434,-2.60021 -1.754866,-3.34565 z m -1.696184,2.5995 c 0.09051,0.0591 0.311511,0.26814 0.37774,1.01862 0.06626,0.75046 -0.07446,1.90742 -0.43407,3.26862 -0.719214,2.72238 -2.338973,6.30632 -4.691054,9.91103 l -6.166336,9.45029 a 1.5521276,1.5521276 0 0 0 -0.06512,1.57899 l 15.500966,28.60705 -0.54126,3.3145 -19.409126,-22.9726 a 1.5521276,1.5521276 0 0 0 -2.464524,0.1678 l -5.671645,8.6922 c -2.783494,4.2658 -5.96891,7.5676 -8.339876,9.113 a 1.5521276,1.5521276 0 0 0 -0.563326,1.9875 l 7.023889,14.7367 -0.364164,1.2682 -9.421341,-14.1393 a 1.5521276,1.5521276 0 0 0 -0.984365,-0.6806 l -17.188261,-3.3009 1.042241,-0.7097 15.980889,0 a 1.5521276,1.5521276 0 0 0 1.529883,-1.2797 c 0.50068,-2.7977 2.248711,-6.9372 4.975101,-11.1156 l 5.830633,-8.93574 a 1.5521276,1.5521276 0 0 0 -0.866093,-2.34099 l -28.760671,-8.22664 4.039357,-2.34467 31.200446,2.83084 a 1.5521276,1.5521276 0 0 0 1.419035,-0.69557 l 5.954313,-9.12535 c 2.352083,-3.60471 4.980103,-6.53075 7.182249,-8.28552 1.101069,-0.87738 2.103372,-1.47217 2.816949,-1.71378 0.713573,-0.2416 0.96689,-0.14124 1.057405,-0.0822 z m -33.839,11.50807 c 0.289221,0.18872 0.503894,0.52947 0.531949,1.19645 0.02805,0.66696 -0.181477,1.57981 -0.729424,2.41957 l -0.159017,0.2437 -4.075204,-0.38127 1.201464,-1.84131 c 0.547947,-0.83976 1.299078,-1.39921 1.920864,-1.64215 0.621779,-0.24297 1.020147,-0.18372 1.309368,0.005 z m 37.232511,24.29423 c 0.289219,0.1886 0.53098,0.5472 0.559027,1.2141 0.02806,0.6669 -0.208556,1.5621 -0.756501,2.4019 l -1.607842,2.4641 -1.963233,-3.5589 0.565395,-0.8664 c 0.547947,-0.8398 1.272007,-1.4169 1.893785,-1.6598 0.621787,-0.243 1.020147,-0.1838 1.309369,0 z" fill="#000000" fill-opacity="1" stroke="none" marker="none" visibility="visible" display="inline" overflow="visible"/></g><text x="0" y="115" fill="#000000" font-size="5px" font-weight="bold" font-family="'Helvetica Neue', Helvetica, Arial-Unicode, Arial, Sans-serif">Created by Royal Icon</text><text x="0" y="120" fill="#000000" font-size="5px" font-weight="bold" font-family="'Helvetica Neue', Helvetica, Arial-Unicode, Arial, Sans-serif">from the Noun Project</text></svg>