<svg xmlns="http://www.w3.org/2000/svg" version="1.1" viewBox="-5.0 -10.0 110.0 135.0">
 <path d="m65.184 73.332c0-2.8594-2.3242-5.1836-5.1836-5.1836s-5.1836 2.3242-5.1836 5.1836 2.3242 5.1875 5.1836 5.1875 5.1836-2.3281 5.1836-5.1875zm-6.668 0c0-0.81641 0.66406-1.4805 1.4805-1.4805s1.4805 0.66406 1.4805 1.4805c0 0.82031-0.66406 1.4844-1.4805 1.4844s-1.4805-0.66406-1.4805-1.4844zm-6.668 0c0-2.8594-2.3242-5.1836-5.1836-5.1836-2.8594 0-5.1836 2.3242-5.1836 5.1836s2.3242 5.1875 5.1836 5.1875c2.8594 0 5.1836-2.3281 5.1836-5.1875zm-6.668 0c0-0.81641 0.66406-1.4805 1.4805-1.4805s1.4805 0.66406 1.4805 1.4805c0 0.82031-0.66406 1.4844-1.4805 1.4844s-1.4805-0.66406-1.4805-1.4844zm49.258 14.816c-1.7852 0-3.7539-0.98438-5.8398-2.0273-1.5195-0.75781-3.0742-1.5352-4.6914-1.9961l12.156-22.125c0.46484-0.84375 0.20312-1.8984-0.59766-2.4297l-6.668-4.4453c-0.30469-0.20312-0.66016-0.3125-1.0273-0.3125h-17.777c-0.49219 0-0.96484 0.19531-1.3086 0.54297l-6.125 6.125-52.355 0.003906 0.8125-2.9844c0.035156 0 0.0625 0.019531 0.09375 0.019531h7.7773c1.0234 0 1.8516-0.82812 1.8516-1.8516 0-1.0234-0.82812-1.8516-1.8516-1.8516h-6.8672l0.80859-2.9648h8.2852c1.0234 0 1.8516-0.82812 1.8516-1.8516s-0.82812-1.8516-1.8516-1.8516h-7.2734l2.0195-7.4062h8.9297l3.9023 3.9023c0.34766 0.34766 0.82031 0.54297 1.3086 0.54297h22.223c0.49219 0 0.96484-0.19531 1.3086-0.54297l3.9023-3.9023h12.035l7.7266 10.367c0.61328 0.82031 1.7695 0.99219 2.5898 0.37891 0.82031-0.60938 0.98828-1.7734 0.37891-2.5898l-8.2812-11.109c-0.34766-0.46875-0.89844-0.74609-1.4844-0.74609h-3.3203l-1.9258-9.6211c-0.17188-0.86328-0.93359-1.4883-1.8164-1.4883h-2.5938l-0.003907-15.934c0-1.0234-0.82812-1.8516-1.8516-1.8516h-11.109c-1.0234 0-1.8516 0.82812-1.8516 1.8516v11.109c0 1.0234 0.82812 1.8516 1.8516 1.8516 1.0234 0 1.8516-0.82813 1.8516-1.8516v-2.5938h7.4062v7.4062h-18.52v-15.922c0-1.0234-0.82812-1.8516-1.8516-1.8516h-11.109c-1.0234 0-1.8516 0.82812-1.8516 1.8516v15.926h-2.5938c-0.88281 0-1.6445 0.625-1.8164 1.4883l-1.9258 9.6211h-2.9297c-0.83594 0-1.5664 0.55859-1.7852 1.3633l-6.293 23.078h-0.80859c-0.57031 0-1.1094 0.26172-1.4609 0.71484-0.35156 0.44922-0.47656 1.0352-0.33594 1.5859l2.2227 8.8906c0.042969 0.17188 0.10938 0.33203 0.19531 0.48438l4.4453 7.6172c0.51562 0.88281 1.6484 1.1797 2.5352 0.66797 0.88281-0.51562 1.1797-1.6484 0.66797-2.5352l-4.3125-7.3906-1.582-6.332h15.777v9.293c-2.1836-0.78516-3.0273-2.7695-3.0781-2.9023-0.35547-0.95703-1.418-1.4375-2.3711-1.0938-0.96094 0.35156-1.457 1.4141-1.1055 2.375 0.085937 0.23047 2.1445 5.6602 8.4062 5.6602 6.2617 0 8.3203-5.4297 8.4062-5.6602 0.34766-0.95703-0.14063-2.0039-1.0898-2.3594-0.95312-0.35547-2.0156 0.12891-2.3828 1.0742-0.039062 0.10547-0.87891 2.1133-3.082 2.9062v-9.293h35.926c0.49219 0 0.96484-0.19531 1.3086-0.54297l6.125-6.125h16.449l4.7852 3.1914-12.137 22.09c-2.1484 0.29688-4.1445 1.2969-6.082 2.2812-2.0977 1.0625-4.0742 2.0664-6.0039 2.0664-2.0742 0-4.4727-0.91016-7.0117-1.8711-3.1758-1.207-6.7773-2.5703-10.766-2.5703s-7.5898 1.3633-10.766 2.5703c-2.5391 0.96484-4.9375 1.8711-7.0117 1.8711-1.9297 0-3.9102-1.0039-6.0039-2.0664-2.3086-1.1719-4.6914-2.3789-7.3281-2.3789-2.6602 0-5.1172 1.2305-7.4961 2.418-2.0859 1.0391-4.0547 2.0273-5.8398 2.0273-1.0234 0-1.8516 0.82812-1.8516 1.8516 0 1.0234 0.82812 1.8516 1.8516 1.8516 2.6602 0 5.1172-1.2266 7.4961-2.418 2.0859-1.043 4.0547-2.0273 5.8398-2.0273 1.75 0 3.6445 0.96094 5.6523 1.9766 2.3945 1.2109 4.8633 2.4648 7.6797 2.4648 2.7539 0 5.4609-1.0273 8.3242-2.1133 3.0195-1.1445 6.1445-2.3281 9.4531-2.3281s6.4336 1.1836 9.4531 2.3281c2.8633 1.0859 5.5703 2.1133 8.3242 2.1133 2.8164 0 5.2891-1.2539 7.6797-2.4648 2.0039-1.0195 3.9023-1.9766 5.6523-1.9766 1.7852 0 3.7539 0.98437 5.8398 2.0273 2.3789 1.1875 4.8359 2.418 7.4961 2.418 1.0234 0 1.8516-0.82812 1.8516-1.8516 0-1.0234-0.82812-1.8516-1.8516-1.8516zm-44.809-73.332v-2.9648h7.4062v2.9648zm-22.223-2.9648h7.4062v2.9648h-7.4062zm0 6.668h7.4062v7.4062h-7.4062zm-4.7773 11.109h39.188l1.4805 7.4062h-6.6289c-0.49219 0-0.96484 0.19531-1.3086 0.54297l-3.9023 3.9023h-20.688l-3.9023-3.9023c-0.34766-0.34766-0.82031-0.54297-1.3086-0.54297h-4.4062l1.4805-7.4062zm11.445 20.371c0 1.0234-0.82812 1.8516-1.8516 1.8516h-2.2227c-1.0234 0-1.8516-0.82812-1.8516-1.8516s0.82812-1.8516 1.8516-1.8516h2.2227c1.0234 0 1.8516 0.82812 1.8516 1.8516zm8.8906 0c0 1.0234-0.82812 1.8516-1.8516 1.8516h-2.2227c-1.0234 0-1.8516-0.82812-1.8516-1.8516s0.82813-1.8516 1.8516-1.8516h2.2227c1.0234 0 1.8516 0.82812 1.8516 1.8516zm-12.594-15.555c0-1.0234 0.82812-1.8516 1.8516-1.8516h4.4453c1.0234 0 1.8516 0.82812 1.8516 1.8516 0 1.0234-0.82812 1.8516-1.8516 1.8516h-4.4453c-1.0234 0-1.8516-0.82812-1.8516-1.8516zm21.48 15.555c0 1.0234-0.82812 1.8516-1.8516 1.8516h-2.2227c-1.0234 0-1.8516-0.82812-1.8516-1.8516s0.82812-1.8516 1.8516-1.8516h2.2227c1.0234 0 1.8516 0.82812 1.8516 1.8516zm-8.1484-15.555c0-1.0234 0.82812-1.8516 1.8516-1.8516h4.4453c1.0234 0 1.8516 0.82812 1.8516 1.8516 0 1.0234-0.82812 1.8516-1.8516 1.8516h-4.4453c-1.0234 0-1.8516-0.82812-1.8516-1.8516zm17.059 15.555c0 1.0234-0.82812 1.8516-1.8516 1.8516h-2.2227c-1.0234 0-1.8516-0.82812-1.8516-1.8516s0.82812-1.8516 1.8516-1.8516h2.2227c1.0234 0 1.8516 0.82812 1.8516 1.8516zm8.8672 0c0 1.0234-0.82812 1.8516-1.8516 1.8516h-2.2227c-1.0234 0-1.8516-0.82812-1.8516-1.8516s0.82812-1.8516 1.8516-1.8516h2.2227c1.0234 0 1.8516 0.82812 1.8516 1.8516zm-35.555 6.668c0 1.0234-0.82812 1.8516-1.8516 1.8516h-2.2227c-1.0234 0-1.8516-0.82812-1.8516-1.8516 0-1.0234 0.82812-1.8516 1.8516-1.8516h2.2227c1.0234 0 1.8516 0.82812 1.8516 1.8516zm8.8906 0c0 1.0234-0.82812 1.8516-1.8516 1.8516h-2.2227c-1.0234 0-1.8516-0.82812-1.8516-1.8516 0-1.0234 0.82813-1.8516 1.8516-1.8516h2.2227c1.0234 0 1.8516 0.82812 1.8516 1.8516zm8.8906 0c0 1.0234-0.82812 1.8516-1.8516 1.8516h-2.2227c-1.0234 0-1.8516-0.82812-1.8516-1.8516 0-1.0234 0.82812-1.8516 1.8516-1.8516h2.2227c1.0234 0 1.8516 0.82812 1.8516 1.8516zm22.57 8.5195c-1.0234 0-1.8516-0.82812-1.8516-1.8516 0-1.0234 0.82812-1.8516 1.8516-1.8516h2.2227c1.0234 0 1.8516 0.82812 1.8516 1.8516 0 1.0234-0.82812 1.8516-1.8516 1.8516zm-13.66-8.5195c0 1.0234-0.82812 1.8516-1.8516 1.8516h-2.2227c-1.0234 0-1.8516-0.82812-1.8516-1.8516 0-1.0234 0.82812-1.8516 1.8516-1.8516h2.2227c1.0234 0 1.8516 0.82812 1.8516 1.8516zm22.57 8.5195c-1.0234 0-1.8516-0.82812-1.8516-1.8516 0-1.0234 0.82812-1.8516 1.8516-1.8516h2.2227c1.0234 0 1.8516 0.82812 1.8516 1.8516 0 1.0234-0.82812 1.8516-1.8516 1.8516z"/>
<text x="0.0" y="117.5" font-size="5.0" font-weight="bold" font-family="Arbeit Regular, Helvetica, Arial-Unicode, Arial, Sans-serif" fill="#000000">Created by Gofficon</text><text x="0.0" y="122.5" font-size="5.0" font-weight="bold" font-family="Arbeit Regular, Helvetica, Arial-Unicode, Arial, Sans-serif" fill="#000000">from Noun Project</text></svg>